<mxfile host="app.diagrams.net" modified="2021-06-27T08:31:08.142Z" agent="5.0 (Windows)" etag="uUsYNq7_WUdhvuY4Acgb" version="14.6.13" type="github">
  <diagram id="R2lEEEUBdFMjLlhIrx00" name="Page-1">
    <mxGraphModel dx="924" dy="587" grid="1" gridSize="10" guides="1" tooltips="1" connect="1" arrows="1" fold="1" page="1" pageScale="1" pageWidth="3300" pageHeight="4681" math="0" shadow="0" extFonts="Permanent Marker^https://fonts.googleapis.com/css?family=Permanent+Marker">
      <root>
        <mxCell id="0" />
        <mxCell id="1" parent="0" />
        <mxCell id="TcWk7vuutBbRPc4ejfDO-1" value="学生" style="rounded=0;whiteSpace=wrap;html=1;" vertex="1" parent="1">
          <mxGeometry x="290" y="370" width="120" height="60" as="geometry" />
        </mxCell>
        <mxCell id="TcWk7vuutBbRPc4ejfDO-2" value="&lt;u&gt;id&lt;/u&gt;" style="ellipse;whiteSpace=wrap;html=1;" vertex="1" parent="1">
          <mxGeometry x="140" y="400" width="120" height="40" as="geometry" />
        </mxCell>
        <mxCell id="TcWk7vuutBbRPc4ejfDO-3" value="" style="endArrow=none;html=1;exitX=1;exitY=0.5;exitDx=0;exitDy=0;entryX=0;entryY=0.5;entryDx=0;entryDy=0;" edge="1" parent="1" source="TcWk7vuutBbRPc4ejfDO-2" target="TcWk7vuutBbRPc4ejfDO-1">
          <mxGeometry width="50" height="50" relative="1" as="geometry">
            <mxPoint x="100" y="190" as="sourcePoint" />
            <mxPoint x="290" y="410" as="targetPoint" />
          </mxGeometry>
        </mxCell>
        <mxCell id="TcWk7vuutBbRPc4ejfDO-4" value="学号" style="ellipse;whiteSpace=wrap;html=1;" vertex="1" parent="1">
          <mxGeometry x="210" y="200" width="120" height="40" as="geometry" />
        </mxCell>
        <mxCell id="TcWk7vuutBbRPc4ejfDO-5" value="" style="endArrow=none;html=1;exitX=0.5;exitY=0;exitDx=0;exitDy=0;entryX=0.5;entryY=1;entryDx=0;entryDy=0;" edge="1" parent="1" source="TcWk7vuutBbRPc4ejfDO-1" target="TcWk7vuutBbRPc4ejfDO-4">
          <mxGeometry width="50" height="50" relative="1" as="geometry">
            <mxPoint x="560" y="380" as="sourcePoint" />
            <mxPoint x="610" y="330" as="targetPoint" />
          </mxGeometry>
        </mxCell>
        <mxCell id="TcWk7vuutBbRPc4ejfDO-6" value="姓名" style="ellipse;whiteSpace=wrap;html=1;" vertex="1" parent="1">
          <mxGeometry x="380" y="230" width="120" height="40" as="geometry" />
        </mxCell>
        <mxCell id="TcWk7vuutBbRPc4ejfDO-7" value="" style="endArrow=none;html=1;exitX=0.75;exitY=0;exitDx=0;exitDy=0;entryX=0;entryY=0.5;entryDx=0;entryDy=0;" edge="1" parent="1" source="TcWk7vuutBbRPc4ejfDO-1" target="TcWk7vuutBbRPc4ejfDO-6">
          <mxGeometry width="50" height="50" relative="1" as="geometry">
            <mxPoint x="560" y="380" as="sourcePoint" />
            <mxPoint x="610" y="330" as="targetPoint" />
          </mxGeometry>
        </mxCell>
        <mxCell id="TcWk7vuutBbRPc4ejfDO-8" value="密码" style="ellipse;whiteSpace=wrap;html=1;" vertex="1" parent="1">
          <mxGeometry x="440" y="490" width="120" height="40" as="geometry" />
        </mxCell>
        <mxCell id="TcWk7vuutBbRPc4ejfDO-9" value="" style="endArrow=none;html=1;exitX=0.75;exitY=1;exitDx=0;exitDy=0;entryX=0;entryY=0.5;entryDx=0;entryDy=0;" edge="1" parent="1" source="TcWk7vuutBbRPc4ejfDO-1" target="TcWk7vuutBbRPc4ejfDO-8">
          <mxGeometry width="50" height="50" relative="1" as="geometry">
            <mxPoint x="560" y="380" as="sourcePoint" />
            <mxPoint x="610" y="330" as="targetPoint" />
          </mxGeometry>
        </mxCell>
        <mxCell id="TcWk7vuutBbRPc4ejfDO-10" value="邮箱" style="ellipse;whiteSpace=wrap;html=1;" vertex="1" parent="1">
          <mxGeometry x="240" y="520" width="120" height="40" as="geometry" />
        </mxCell>
        <mxCell id="TcWk7vuutBbRPc4ejfDO-11" value="" style="endArrow=none;html=1;exitX=0.35;exitY=0.983;exitDx=0;exitDy=0;entryX=0.425;entryY=-0.025;entryDx=0;entryDy=0;entryPerimeter=0;exitPerimeter=0;" edge="1" parent="1" source="TcWk7vuutBbRPc4ejfDO-1" target="TcWk7vuutBbRPc4ejfDO-10">
          <mxGeometry width="50" height="50" relative="1" as="geometry">
            <mxPoint x="630" y="460" as="sourcePoint" />
            <mxPoint x="680" y="410" as="targetPoint" />
          </mxGeometry>
        </mxCell>
        <mxCell id="TcWk7vuutBbRPc4ejfDO-12" value="性别" style="ellipse;whiteSpace=wrap;html=1;" vertex="1" parent="1">
          <mxGeometry x="140" y="470" width="120" height="40" as="geometry" />
        </mxCell>
        <mxCell id="TcWk7vuutBbRPc4ejfDO-13" value="" style="endArrow=none;html=1;entryX=0.5;entryY=0;entryDx=0;entryDy=0;exitX=0;exitY=1;exitDx=0;exitDy=0;" edge="1" parent="1" source="TcWk7vuutBbRPc4ejfDO-1" target="TcWk7vuutBbRPc4ejfDO-12">
          <mxGeometry width="50" height="50" relative="1" as="geometry">
            <mxPoint x="350" y="440" as="sourcePoint" />
            <mxPoint x="680" y="410" as="targetPoint" />
          </mxGeometry>
        </mxCell>
        <mxCell id="TcWk7vuutBbRPc4ejfDO-14" value="专业" style="ellipse;whiteSpace=wrap;html=1;" vertex="1" parent="1">
          <mxGeometry x="350" y="530" width="120" height="40" as="geometry" />
        </mxCell>
        <mxCell id="TcWk7vuutBbRPc4ejfDO-17" value="" style="endArrow=none;html=1;exitX=0.433;exitY=1.05;exitDx=0;exitDy=0;entryX=0.392;entryY=0.05;entryDx=0;entryDy=0;entryPerimeter=0;exitPerimeter=0;" edge="1" parent="1" source="TcWk7vuutBbRPc4ejfDO-1" target="TcWk7vuutBbRPc4ejfDO-14">
          <mxGeometry width="50" height="50" relative="1" as="geometry">
            <mxPoint x="630" y="460" as="sourcePoint" />
            <mxPoint x="680" y="410" as="targetPoint" />
          </mxGeometry>
        </mxCell>
        <mxCell id="TcWk7vuutBbRPc4ejfDO-18" value="创建时间" style="ellipse;whiteSpace=wrap;html=1;" vertex="1" parent="1">
          <mxGeometry x="340" y="180" width="120" height="40" as="geometry" />
        </mxCell>
        <mxCell id="TcWk7vuutBbRPc4ejfDO-19" value="" style="endArrow=none;html=1;exitX=0.625;exitY=-0.033;exitDx=0;exitDy=0;exitPerimeter=0;entryX=0;entryY=1;entryDx=0;entryDy=0;" edge="1" parent="1" source="TcWk7vuutBbRPc4ejfDO-1" target="TcWk7vuutBbRPc4ejfDO-18">
          <mxGeometry width="50" height="50" relative="1" as="geometry">
            <mxPoint x="630" y="460" as="sourcePoint" />
            <mxPoint x="680" y="410" as="targetPoint" />
          </mxGeometry>
        </mxCell>
        <mxCell id="TcWk7vuutBbRPc4ejfDO-20" value="meta" style="ellipse;whiteSpace=wrap;html=1;" vertex="1" parent="1">
          <mxGeometry x="150" y="270" width="120" height="40" as="geometry" />
        </mxCell>
        <mxCell id="TcWk7vuutBbRPc4ejfDO-21" value="" style="endArrow=none;html=1;exitX=0.5;exitY=1;exitDx=0;exitDy=0;entryX=0;entryY=0.5;entryDx=0;entryDy=0;" edge="1" parent="1" source="TcWk7vuutBbRPc4ejfDO-20" target="TcWk7vuutBbRPc4ejfDO-1">
          <mxGeometry width="50" height="50" relative="1" as="geometry">
            <mxPoint x="630" y="460" as="sourcePoint" />
            <mxPoint x="680" y="410" as="targetPoint" />
          </mxGeometry>
        </mxCell>
        <mxCell id="TcWk7vuutBbRPc4ejfDO-22" value="&lt;div&gt;教师&lt;/div&gt;" style="rounded=0;whiteSpace=wrap;html=1;" vertex="1" parent="1">
          <mxGeometry x="1290" y="400" width="120" height="60" as="geometry" />
        </mxCell>
        <mxCell id="TcWk7vuutBbRPc4ejfDO-23" value="id" style="ellipse;whiteSpace=wrap;html=1;fontStyle=4" vertex="1" parent="1">
          <mxGeometry x="1490" y="530" width="120" height="40" as="geometry" />
        </mxCell>
        <mxCell id="TcWk7vuutBbRPc4ejfDO-24" value="" style="endArrow=none;html=1;entryX=0.417;entryY=0;entryDx=0;entryDy=0;entryPerimeter=0;exitX=1;exitY=0.5;exitDx=0;exitDy=0;" edge="1" parent="1" source="TcWk7vuutBbRPc4ejfDO-22" target="TcWk7vuutBbRPc4ejfDO-23">
          <mxGeometry width="50" height="50" relative="1" as="geometry">
            <mxPoint x="1270" y="530" as="sourcePoint" />
            <mxPoint x="1320" y="480" as="targetPoint" />
          </mxGeometry>
        </mxCell>
        <mxCell id="TcWk7vuutBbRPc4ejfDO-25" value="&lt;div&gt;教工号&lt;/div&gt;" style="ellipse;whiteSpace=wrap;html=1;" vertex="1" parent="1">
          <mxGeometry x="1500" y="320" width="120" height="40" as="geometry" />
        </mxCell>
        <mxCell id="TcWk7vuutBbRPc4ejfDO-26" value="" style="endArrow=none;html=1;entryX=-0.008;entryY=0.613;entryDx=0;entryDy=0;entryPerimeter=0;exitX=0.5;exitY=0;exitDx=0;exitDy=0;" edge="1" parent="1" source="TcWk7vuutBbRPc4ejfDO-22" target="TcWk7vuutBbRPc4ejfDO-25">
          <mxGeometry width="50" height="50" relative="1" as="geometry">
            <mxPoint x="1270" y="530" as="sourcePoint" />
            <mxPoint x="1320" y="480" as="targetPoint" />
          </mxGeometry>
        </mxCell>
        <mxCell id="TcWk7vuutBbRPc4ejfDO-27" value="姓名" style="ellipse;whiteSpace=wrap;html=1;" vertex="1" parent="1">
          <mxGeometry x="1565" y="390" width="120" height="40" as="geometry" />
        </mxCell>
        <mxCell id="TcWk7vuutBbRPc4ejfDO-28" value="密码" style="ellipse;whiteSpace=wrap;html=1;" vertex="1" parent="1">
          <mxGeometry x="1615" y="480" width="120" height="40" as="geometry" />
        </mxCell>
        <mxCell id="TcWk7vuutBbRPc4ejfDO-29" value="邮箱" style="ellipse;whiteSpace=wrap;html=1;" vertex="1" parent="1">
          <mxGeometry x="1360" y="540" width="120" height="40" as="geometry" />
        </mxCell>
        <mxCell id="TcWk7vuutBbRPc4ejfDO-30" value="" style="endArrow=none;html=1;entryX=0;entryY=0.5;entryDx=0;entryDy=0;exitX=1;exitY=0.5;exitDx=0;exitDy=0;" edge="1" parent="1" source="TcWk7vuutBbRPc4ejfDO-22" target="TcWk7vuutBbRPc4ejfDO-27">
          <mxGeometry width="50" height="50" relative="1" as="geometry">
            <mxPoint x="1400" y="530" as="sourcePoint" />
            <mxPoint x="1450" y="480" as="targetPoint" />
          </mxGeometry>
        </mxCell>
        <mxCell id="TcWk7vuutBbRPc4ejfDO-31" value="" style="endArrow=none;html=1;entryX=0;entryY=0.5;entryDx=0;entryDy=0;exitX=1;exitY=0.5;exitDx=0;exitDy=0;" edge="1" parent="1" source="TcWk7vuutBbRPc4ejfDO-22" target="TcWk7vuutBbRPc4ejfDO-28">
          <mxGeometry width="50" height="50" relative="1" as="geometry">
            <mxPoint x="1400" y="530" as="sourcePoint" />
            <mxPoint x="1450" y="480" as="targetPoint" />
          </mxGeometry>
        </mxCell>
        <mxCell id="TcWk7vuutBbRPc4ejfDO-32" value="" style="endArrow=none;html=1;entryX=0.442;entryY=0;entryDx=0;entryDy=0;entryPerimeter=0;exitX=1;exitY=0.75;exitDx=0;exitDy=0;" edge="1" parent="1" source="TcWk7vuutBbRPc4ejfDO-22" target="TcWk7vuutBbRPc4ejfDO-29">
          <mxGeometry width="50" height="50" relative="1" as="geometry">
            <mxPoint x="1400" y="530" as="sourcePoint" />
            <mxPoint x="1450" y="480" as="targetPoint" />
          </mxGeometry>
        </mxCell>
        <mxCell id="TcWk7vuutBbRPc4ejfDO-33" value="专业" style="ellipse;whiteSpace=wrap;html=1;" vertex="1" parent="1">
          <mxGeometry x="1290" y="640" width="120" height="40" as="geometry" />
        </mxCell>
        <mxCell id="TcWk7vuutBbRPc4ejfDO-34" value="创建时间" style="ellipse;whiteSpace=wrap;html=1;" vertex="1" parent="1">
          <mxGeometry x="1240" y="250" width="120" height="40" as="geometry" />
        </mxCell>
        <mxCell id="TcWk7vuutBbRPc4ejfDO-35" value="meta" style="ellipse;whiteSpace=wrap;html=1;" vertex="1" parent="1">
          <mxGeometry x="1390" y="260" width="120" height="40" as="geometry" />
        </mxCell>
        <mxCell id="TcWk7vuutBbRPc4ejfDO-36" value="" style="endArrow=none;html=1;entryX=0.5;entryY=1;entryDx=0;entryDy=0;exitX=0.5;exitY=0;exitDx=0;exitDy=0;" edge="1" parent="1" source="TcWk7vuutBbRPc4ejfDO-33" target="TcWk7vuutBbRPc4ejfDO-22">
          <mxGeometry width="50" height="50" relative="1" as="geometry">
            <mxPoint x="1300" y="520" as="sourcePoint" />
            <mxPoint x="1350" y="470" as="targetPoint" />
          </mxGeometry>
        </mxCell>
        <mxCell id="TcWk7vuutBbRPc4ejfDO-38" value="" style="endArrow=none;html=1;exitX=0.5;exitY=1;exitDx=0;exitDy=0;entryX=0.5;entryY=0;entryDx=0;entryDy=0;" edge="1" parent="1" source="TcWk7vuutBbRPc4ejfDO-35" target="TcWk7vuutBbRPc4ejfDO-22">
          <mxGeometry width="50" height="50" relative="1" as="geometry">
            <mxPoint x="1300" y="520" as="sourcePoint" />
            <mxPoint x="1350" y="470" as="targetPoint" />
          </mxGeometry>
        </mxCell>
        <mxCell id="TcWk7vuutBbRPc4ejfDO-39" value="" style="endArrow=none;html=1;entryX=0.583;entryY=0.975;entryDx=0;entryDy=0;entryPerimeter=0;exitX=0.5;exitY=0;exitDx=0;exitDy=0;" edge="1" parent="1" source="TcWk7vuutBbRPc4ejfDO-22" target="TcWk7vuutBbRPc4ejfDO-34">
          <mxGeometry width="50" height="50" relative="1" as="geometry">
            <mxPoint x="1300" y="520" as="sourcePoint" />
            <mxPoint x="1350" y="470" as="targetPoint" />
          </mxGeometry>
        </mxCell>
        <mxCell id="TcWk7vuutBbRPc4ejfDO-40" value="电话" style="ellipse;whiteSpace=wrap;html=1;" vertex="1" parent="1">
          <mxGeometry x="1220" y="570" width="120" height="40" as="geometry" />
        </mxCell>
        <mxCell id="TcWk7vuutBbRPc4ejfDO-41" value="" style="endArrow=none;html=1;exitX=0.5;exitY=0;exitDx=0;exitDy=0;" edge="1" parent="1" source="TcWk7vuutBbRPc4ejfDO-40" target="TcWk7vuutBbRPc4ejfDO-22">
          <mxGeometry width="50" height="50" relative="1" as="geometry">
            <mxPoint x="1300" y="520" as="sourcePoint" />
            <mxPoint x="1350" y="470" as="targetPoint" />
          </mxGeometry>
        </mxCell>
        <mxCell id="TcWk7vuutBbRPc4ejfDO-42" value="课程" style="rounded=0;whiteSpace=wrap;html=1;" vertex="1" parent="1">
          <mxGeometry x="830" y="190" width="120" height="60" as="geometry" />
        </mxCell>
        <mxCell id="TcWk7vuutBbRPc4ejfDO-43" value="id" style="ellipse;whiteSpace=wrap;html=1;fontStyle=4" vertex="1" parent="1">
          <mxGeometry x="690" y="90" width="120" height="40" as="geometry" />
        </mxCell>
        <mxCell id="TcWk7vuutBbRPc4ejfDO-44" value="" style="endArrow=none;html=1;entryX=1;entryY=0.5;entryDx=0;entryDy=0;exitX=0.5;exitY=0;exitDx=0;exitDy=0;" edge="1" parent="1" target="TcWk7vuutBbRPc4ejfDO-43" source="TcWk7vuutBbRPc4ejfDO-42">
          <mxGeometry width="50" height="50" relative="1" as="geometry">
            <mxPoint x="980" y="300" as="sourcePoint" />
            <mxPoint x="890" y="350" as="targetPoint" />
          </mxGeometry>
        </mxCell>
        <mxCell id="TcWk7vuutBbRPc4ejfDO-47" value="&lt;div&gt;课程号&lt;/div&gt;" style="ellipse;whiteSpace=wrap;html=1;" vertex="1" parent="1">
          <mxGeometry x="870" y="390" width="120" height="40" as="geometry" />
        </mxCell>
        <mxCell id="TcWk7vuutBbRPc4ejfDO-48" value="" style="endArrow=none;html=1;entryX=0.008;entryY=0.375;entryDx=0;entryDy=0;entryPerimeter=0;exitX=0.5;exitY=1;exitDx=0;exitDy=0;" edge="1" target="TcWk7vuutBbRPc4ejfDO-47" parent="1" source="TcWk7vuutBbRPc4ejfDO-42">
          <mxGeometry width="50" height="50" relative="1" as="geometry">
            <mxPoint x="820" y="560" as="sourcePoint" />
            <mxPoint x="790" y="640" as="targetPoint" />
          </mxGeometry>
        </mxCell>
        <mxCell id="TcWk7vuutBbRPc4ejfDO-49" value="" style="endArrow=none;html=1;entryX=0;entryY=0.5;entryDx=0;entryDy=0;exitX=0.442;exitY=1.033;exitDx=0;exitDy=0;exitPerimeter=0;" edge="1" target="TcWk7vuutBbRPc4ejfDO-50" parent="1" source="TcWk7vuutBbRPc4ejfDO-42">
          <mxGeometry width="50" height="50" relative="1" as="geometry">
            <mxPoint x="880" y="590" as="sourcePoint" />
            <mxPoint x="920" y="640" as="targetPoint" />
          </mxGeometry>
        </mxCell>
        <mxCell id="TcWk7vuutBbRPc4ejfDO-50" value="课程名" style="ellipse;whiteSpace=wrap;html=1;" vertex="1" parent="1">
          <mxGeometry x="750" y="350" width="120" height="40" as="geometry" />
        </mxCell>
        <mxCell id="TcWk7vuutBbRPc4ejfDO-51" value="课程概述" style="ellipse;whiteSpace=wrap;html=1;" vertex="1" parent="1">
          <mxGeometry x="860" y="70" width="120" height="40" as="geometry" />
        </mxCell>
        <mxCell id="TcWk7vuutBbRPc4ejfDO-52" value="" style="endArrow=none;html=1;entryX=0;entryY=0.5;entryDx=0;entryDy=0;exitX=0.5;exitY=0;exitDx=0;exitDy=0;" edge="1" target="TcWk7vuutBbRPc4ejfDO-51" parent="1" source="TcWk7vuutBbRPc4ejfDO-42">
          <mxGeometry width="50" height="50" relative="1" as="geometry">
            <mxPoint x="1173.04" y="120.00000000000003" as="sourcePoint" />
            <mxPoint x="1180" y="428.02" as="targetPoint" />
          </mxGeometry>
        </mxCell>
        <mxCell id="TcWk7vuutBbRPc4ejfDO-60" value="" style="endArrow=none;html=1;rounded=0;entryX=0;entryY=0;entryDx=0;entryDy=0;exitX=0.908;exitY=0.45;exitDx=0;exitDy=0;exitPerimeter=0;" edge="1" parent="1" source="TcWk7vuutBbRPc4ejfDO-65" target="TcWk7vuutBbRPc4ejfDO-22">
          <mxGeometry relative="1" as="geometry">
            <mxPoint x="1210" y="320" as="sourcePoint" />
            <mxPoint x="990" y="350" as="targetPoint" />
          </mxGeometry>
        </mxCell>
        <mxCell id="TcWk7vuutBbRPc4ejfDO-61" value="N" style="resizable=0;html=1;align=right;verticalAlign=bottom;" connectable="0" vertex="1" parent="TcWk7vuutBbRPc4ejfDO-60">
          <mxGeometry x="1" relative="1" as="geometry">
            <mxPoint x="-60" y="-160" as="offset" />
          </mxGeometry>
        </mxCell>
        <mxCell id="TcWk7vuutBbRPc4ejfDO-62" value="" style="endArrow=none;html=1;rounded=0;entryX=1;entryY=0.5;entryDx=0;entryDy=0;exitX=0;exitY=0.5;exitDx=0;exitDy=0;exitPerimeter=0;" edge="1" parent="1" source="TcWk7vuutBbRPc4ejfDO-65" target="TcWk7vuutBbRPc4ejfDO-42">
          <mxGeometry relative="1" as="geometry">
            <mxPoint x="1090" y="390" as="sourcePoint" />
            <mxPoint x="1000" y="212" as="targetPoint" />
            <Array as="points" />
          </mxGeometry>
        </mxCell>
        <mxCell id="TcWk7vuutBbRPc4ejfDO-63" value="M" style="resizable=0;html=1;align=right;verticalAlign=bottom;" connectable="0" vertex="1" parent="TcWk7vuutBbRPc4ejfDO-62">
          <mxGeometry x="1" relative="1" as="geometry">
            <mxPoint x="110" as="offset" />
          </mxGeometry>
        </mxCell>
        <mxCell id="TcWk7vuutBbRPc4ejfDO-65" value="创建" style="shape=rhombus;double=1;perimeter=rhombusPerimeter;whiteSpace=wrap;html=1;align=center;" vertex="1" parent="1">
          <mxGeometry x="1090" y="270" width="120" height="60" as="geometry" />
        </mxCell>
        <mxCell id="TcWk7vuutBbRPc4ejfDO-66" value="创建者id" style="ellipse;whiteSpace=wrap;html=1;align=center;" vertex="1" parent="1">
          <mxGeometry x="950" y="320" width="100" height="40" as="geometry" />
        </mxCell>
        <mxCell id="TcWk7vuutBbRPc4ejfDO-67" value="" style="endArrow=none;html=1;rounded=0;exitX=1;exitY=1;exitDx=0;exitDy=0;entryX=0.5;entryY=0;entryDx=0;entryDy=0;" edge="1" parent="1" source="TcWk7vuutBbRPc4ejfDO-42" target="TcWk7vuutBbRPc4ejfDO-66">
          <mxGeometry relative="1" as="geometry">
            <mxPoint x="830" y="340" as="sourcePoint" />
            <mxPoint x="990" y="340" as="targetPoint" />
          </mxGeometry>
        </mxCell>
        <mxCell id="TcWk7vuutBbRPc4ejfDO-68" value="创建时间" style="ellipse;whiteSpace=wrap;html=1;" vertex="1" parent="1">
          <mxGeometry x="980" y="120" width="120" height="40" as="geometry" />
        </mxCell>
        <mxCell id="TcWk7vuutBbRPc4ejfDO-69" value="meta" style="ellipse;whiteSpace=wrap;html=1;" vertex="1" parent="1">
          <mxGeometry x="1105" y="140" width="120" height="40" as="geometry" />
        </mxCell>
        <mxCell id="TcWk7vuutBbRPc4ejfDO-70" value="创建者姓名" style="ellipse;whiteSpace=wrap;html=1;" vertex="1" parent="1">
          <mxGeometry x="1050" y="350" width="120" height="40" as="geometry" />
        </mxCell>
        <mxCell id="TcWk7vuutBbRPc4ejfDO-71" value="" style="endArrow=none;html=1;entryX=0;entryY=0.5;entryDx=0;entryDy=0;exitX=1;exitY=0.5;exitDx=0;exitDy=0;" edge="1" target="TcWk7vuutBbRPc4ejfDO-70" parent="1" source="TcWk7vuutBbRPc4ejfDO-42">
          <mxGeometry width="50" height="50" relative="1" as="geometry">
            <mxPoint x="1070" y="640" as="sourcePoint" />
            <mxPoint x="1110" y="690" as="targetPoint" />
          </mxGeometry>
        </mxCell>
        <mxCell id="TcWk7vuutBbRPc4ejfDO-72" value="" style="endArrow=none;html=1;entryX=0.042;entryY=0.5;entryDx=0;entryDy=0;entryPerimeter=0;" edge="1" parent="1" target="TcWk7vuutBbRPc4ejfDO-69">
          <mxGeometry width="50" height="50" relative="1" as="geometry">
            <mxPoint x="951" y="215" as="sourcePoint" />
            <mxPoint x="1100" y="160" as="targetPoint" />
          </mxGeometry>
        </mxCell>
        <mxCell id="TcWk7vuutBbRPc4ejfDO-73" value="" style="endArrow=none;html=1;entryX=0.583;entryY=0.975;entryDx=0;entryDy=0;entryPerimeter=0;exitX=1;exitY=0.5;exitDx=0;exitDy=0;" edge="1" target="TcWk7vuutBbRPc4ejfDO-68" parent="1" source="TcWk7vuutBbRPc4ejfDO-42">
          <mxGeometry width="50" height="50" relative="1" as="geometry">
            <mxPoint x="1010" y="610" as="sourcePoint" />
            <mxPoint x="1010" y="680" as="targetPoint" />
          </mxGeometry>
        </mxCell>
        <mxCell id="TcWk7vuutBbRPc4ejfDO-76" value="课程资源" style="rounded=0;whiteSpace=wrap;html=1;" vertex="1" parent="1">
          <mxGeometry x="840" y="730" width="120" height="60" as="geometry" />
        </mxCell>
        <mxCell id="TcWk7vuutBbRPc4ejfDO-77" value="meta" style="ellipse;whiteSpace=wrap;html=1;" vertex="1" parent="1">
          <mxGeometry x="590" y="820" width="120" height="40" as="geometry" />
        </mxCell>
        <mxCell id="TcWk7vuutBbRPc4ejfDO-78" value="" style="endArrow=none;html=1;exitX=0.5;exitY=0;exitDx=0;exitDy=0;entryX=0;entryY=0.5;entryDx=0;entryDy=0;" edge="1" source="TcWk7vuutBbRPc4ejfDO-77" target="TcWk7vuutBbRPc4ejfDO-76" parent="1">
          <mxGeometry width="50" height="50" relative="1" as="geometry">
            <mxPoint x="1180" y="810" as="sourcePoint" />
            <mxPoint x="1230" y="760" as="targetPoint" />
          </mxGeometry>
        </mxCell>
        <mxCell id="TcWk7vuutBbRPc4ejfDO-79" value="" style="endArrow=none;html=1;exitX=0.5;exitY=0;exitDx=0;exitDy=0;entryX=0.5;entryY=1;entryDx=0;entryDy=0;" edge="1" source="TcWk7vuutBbRPc4ejfDO-76" target="TcWk7vuutBbRPc4ejfDO-80" parent="1">
          <mxGeometry width="50" height="50" relative="1" as="geometry">
            <mxPoint x="1110" y="730" as="sourcePoint" />
            <mxPoint x="1160" y="680" as="targetPoint" />
          </mxGeometry>
        </mxCell>
        <mxCell id="TcWk7vuutBbRPc4ejfDO-80" value="文件类型" style="ellipse;whiteSpace=wrap;html=1;" vertex="1" parent="1">
          <mxGeometry x="840" y="550" width="120" height="40" as="geometry" />
        </mxCell>
        <mxCell id="TcWk7vuutBbRPc4ejfDO-81" value="上传时间" style="ellipse;whiteSpace=wrap;html=1;" vertex="1" parent="1">
          <mxGeometry x="980" y="520" width="120" height="40" as="geometry" />
        </mxCell>
        <mxCell id="TcWk7vuutBbRPc4ejfDO-82" value="" style="endArrow=none;html=1;exitX=0.625;exitY=-0.033;exitDx=0;exitDy=0;exitPerimeter=0;entryX=0;entryY=1;entryDx=0;entryDy=0;" edge="1" source="TcWk7vuutBbRPc4ejfDO-76" target="TcWk7vuutBbRPc4ejfDO-81" parent="1">
          <mxGeometry width="50" height="50" relative="1" as="geometry">
            <mxPoint x="1180" y="810" as="sourcePoint" />
            <mxPoint x="1230" y="760" as="targetPoint" />
          </mxGeometry>
        </mxCell>
        <mxCell id="TcWk7vuutBbRPc4ejfDO-83" value="" style="endArrow=none;html=1;exitX=1;exitY=0.5;exitDx=0;exitDy=0;entryX=0;entryY=0.5;entryDx=0;entryDy=0;" edge="1" source="TcWk7vuutBbRPc4ejfDO-76" target="TcWk7vuutBbRPc4ejfDO-84" parent="1">
          <mxGeometry width="50" height="50" relative="1" as="geometry">
            <mxPoint x="1110" y="730" as="sourcePoint" />
            <mxPoint x="1160" y="680" as="targetPoint" />
          </mxGeometry>
        </mxCell>
        <mxCell id="TcWk7vuutBbRPc4ejfDO-84" value="资源标题" style="ellipse;whiteSpace=wrap;html=1;" vertex="1" parent="1">
          <mxGeometry x="1050" y="780" width="120" height="40" as="geometry" />
        </mxCell>
        <mxCell id="TcWk7vuutBbRPc4ejfDO-85" value="上传者" style="ellipse;whiteSpace=wrap;html=1;" vertex="1" parent="1">
          <mxGeometry x="1040" y="860" width="120" height="40" as="geometry" />
        </mxCell>
        <mxCell id="TcWk7vuutBbRPc4ejfDO-86" value="" style="endArrow=none;html=1;exitX=1;exitY=0.25;exitDx=0;exitDy=0;entryX=0;entryY=0.5;entryDx=0;entryDy=0;" edge="1" source="TcWk7vuutBbRPc4ejfDO-76" target="TcWk7vuutBbRPc4ejfDO-85" parent="1">
          <mxGeometry width="50" height="50" relative="1" as="geometry">
            <mxPoint x="1110" y="730" as="sourcePoint" />
            <mxPoint x="1160" y="680" as="targetPoint" />
          </mxGeometry>
        </mxCell>
        <mxCell id="TcWk7vuutBbRPc4ejfDO-87" value="" style="endArrow=none;html=1;exitX=1;exitY=0.75;exitDx=0;exitDy=0;entryX=0;entryY=0.5;entryDx=0;entryDy=0;" edge="1" source="TcWk7vuutBbRPc4ejfDO-76" target="TcWk7vuutBbRPc4ejfDO-88" parent="1">
          <mxGeometry width="50" height="50" relative="1" as="geometry">
            <mxPoint x="1180" y="810" as="sourcePoint" />
            <mxPoint x="1230" y="760" as="targetPoint" />
          </mxGeometry>
        </mxCell>
        <mxCell id="TcWk7vuutBbRPc4ejfDO-88" value="大小" style="ellipse;whiteSpace=wrap;html=1;" vertex="1" parent="1">
          <mxGeometry x="985" y="930" width="120" height="40" as="geometry" />
        </mxCell>
        <mxCell id="TcWk7vuutBbRPc4ejfDO-89" value="文件路径" style="ellipse;whiteSpace=wrap;html=1;" vertex="1" parent="1">
          <mxGeometry x="920" y="990" width="120" height="40" as="geometry" />
        </mxCell>
        <mxCell id="TcWk7vuutBbRPc4ejfDO-90" value="" style="endArrow=none;html=1;exitX=0.75;exitY=1;exitDx=0;exitDy=0;entryX=0;entryY=0.5;entryDx=0;entryDy=0;" edge="1" source="TcWk7vuutBbRPc4ejfDO-76" target="TcWk7vuutBbRPc4ejfDO-89" parent="1">
          <mxGeometry width="50" height="50" relative="1" as="geometry">
            <mxPoint x="1180" y="810" as="sourcePoint" />
            <mxPoint x="1230" y="760" as="targetPoint" />
          </mxGeometry>
        </mxCell>
        <mxCell id="TcWk7vuutBbRPc4ejfDO-91" value="" style="endArrow=none;html=1;entryX=0.5;entryY=0;entryDx=0;entryDy=0;exitX=0.667;exitY=1.05;exitDx=0;exitDy=0;exitPerimeter=0;" edge="1" source="TcWk7vuutBbRPc4ejfDO-76" target="TcWk7vuutBbRPc4ejfDO-92" parent="1">
          <mxGeometry width="50" height="50" relative="1" as="geometry">
            <mxPoint x="900" y="790" as="sourcePoint" />
            <mxPoint x="1230" y="760" as="targetPoint" />
          </mxGeometry>
        </mxCell>
        <mxCell id="TcWk7vuutBbRPc4ejfDO-92" value="下载次数" style="ellipse;whiteSpace=wrap;html=1;" vertex="1" parent="1">
          <mxGeometry x="750" y="980" width="120" height="40" as="geometry" />
        </mxCell>
        <mxCell id="TcWk7vuutBbRPc4ejfDO-93" value="&lt;u&gt;id&lt;/u&gt;" style="ellipse;whiteSpace=wrap;html=1;" vertex="1" parent="1">
          <mxGeometry x="670" y="920" width="120" height="40" as="geometry" />
        </mxCell>
        <mxCell id="TcWk7vuutBbRPc4ejfDO-94" value="" style="endArrow=none;html=1;entryX=0.5;entryY=1;entryDx=0;entryDy=0;exitX=0.5;exitY=0;exitDx=0;exitDy=0;" edge="1" source="TcWk7vuutBbRPc4ejfDO-93" target="TcWk7vuutBbRPc4ejfDO-76" parent="1">
          <mxGeometry width="50" height="50" relative="1" as="geometry">
            <mxPoint x="650" y="540" as="sourcePoint" />
            <mxPoint x="700" y="490" as="targetPoint" />
          </mxGeometry>
        </mxCell>
        <mxCell id="TcWk7vuutBbRPc4ejfDO-95" value="学习" style="shape=rhombus;double=1;perimeter=rhombusPerimeter;whiteSpace=wrap;html=1;align=center;" vertex="1" parent="1">
          <mxGeometry x="610" y="220" width="120" height="60" as="geometry" />
        </mxCell>
        <mxCell id="TcWk7vuutBbRPc4ejfDO-99" value="" style="endArrow=none;html=1;rounded=0;exitX=0;exitY=0.5;exitDx=0;exitDy=0;entryX=1;entryY=0.4;entryDx=0;entryDy=0;entryPerimeter=0;" edge="1" parent="1" source="TcWk7vuutBbRPc4ejfDO-95" target="TcWk7vuutBbRPc4ejfDO-1">
          <mxGeometry relative="1" as="geometry">
            <mxPoint x="560" y="370" as="sourcePoint" />
            <mxPoint x="720" y="370" as="targetPoint" />
          </mxGeometry>
        </mxCell>
        <mxCell id="TcWk7vuutBbRPc4ejfDO-100" value="N" style="resizable=0;html=1;align=right;verticalAlign=bottom;" connectable="0" vertex="1" parent="TcWk7vuutBbRPc4ejfDO-99">
          <mxGeometry x="1" relative="1" as="geometry">
            <mxPoint x="100" y="46" as="offset" />
          </mxGeometry>
        </mxCell>
        <mxCell id="TcWk7vuutBbRPc4ejfDO-101" value="" style="endArrow=none;html=1;rounded=0;entryX=0;entryY=0.5;entryDx=0;entryDy=0;exitX=1;exitY=0.5;exitDx=0;exitDy=0;" edge="1" parent="1" source="TcWk7vuutBbRPc4ejfDO-95" target="TcWk7vuutBbRPc4ejfDO-42">
          <mxGeometry relative="1" as="geometry">
            <mxPoint x="560" y="370" as="sourcePoint" />
            <mxPoint x="720" y="370" as="targetPoint" />
          </mxGeometry>
        </mxCell>
        <mxCell id="TcWk7vuutBbRPc4ejfDO-102" value="M" style="resizable=0;html=1;align=right;verticalAlign=bottom;" connectable="0" vertex="1" parent="TcWk7vuutBbRPc4ejfDO-101">
          <mxGeometry x="1" relative="1" as="geometry">
            <mxPoint x="-70" y="10" as="offset" />
          </mxGeometry>
        </mxCell>
        <mxCell id="TcWk7vuutBbRPc4ejfDO-103" value="使用" style="shape=rhombus;double=1;perimeter=rhombusPerimeter;whiteSpace=wrap;html=1;align=center;" vertex="1" parent="1">
          <mxGeometry x="600" y="490" width="120" height="60" as="geometry" />
        </mxCell>
        <mxCell id="TcWk7vuutBbRPc4ejfDO-104" value="" style="endArrow=none;html=1;rounded=0;exitX=0;exitY=0.5;exitDx=0;exitDy=0;entryX=1;entryY=0.5;entryDx=0;entryDy=0;" edge="1" source="TcWk7vuutBbRPc4ejfDO-103" parent="1" target="TcWk7vuutBbRPc4ejfDO-1">
          <mxGeometry relative="1" as="geometry">
            <mxPoint x="620" y="630" as="sourcePoint" />
            <mxPoint x="400" y="415" as="targetPoint" />
          </mxGeometry>
        </mxCell>
        <mxCell id="TcWk7vuutBbRPc4ejfDO-105" value="N" style="resizable=0;html=1;align=right;verticalAlign=bottom;" connectable="0" vertex="1" parent="TcWk7vuutBbRPc4ejfDO-104">
          <mxGeometry x="1" relative="1" as="geometry">
            <mxPoint x="90" y="-85" as="offset" />
          </mxGeometry>
        </mxCell>
        <mxCell id="TcWk7vuutBbRPc4ejfDO-106" value="" style="endArrow=none;html=1;rounded=0;entryX=-0.025;entryY=0.383;entryDx=0;entryDy=0;exitX=1;exitY=0.5;exitDx=0;exitDy=0;entryPerimeter=0;" edge="1" source="TcWk7vuutBbRPc4ejfDO-103" parent="1" target="TcWk7vuutBbRPc4ejfDO-76">
          <mxGeometry relative="1" as="geometry">
            <mxPoint x="620" y="630" as="sourcePoint" />
            <mxPoint x="830" y="730" as="targetPoint" />
          </mxGeometry>
        </mxCell>
        <mxCell id="TcWk7vuutBbRPc4ejfDO-107" value="N" style="resizable=0;html=1;align=right;verticalAlign=bottom;" connectable="0" vertex="1" parent="TcWk7vuutBbRPc4ejfDO-106">
          <mxGeometry x="1" relative="1" as="geometry">
            <mxPoint x="-7" y="-193" as="offset" />
          </mxGeometry>
        </mxCell>
        <mxCell id="TcWk7vuutBbRPc4ejfDO-114" value="" style="endArrow=none;html=1;rounded=0;entryX=0.128;entryY=0.023;entryDx=0;entryDy=0;exitX=1;exitY=0.5;exitDx=0;exitDy=0;entryPerimeter=0;" edge="1" source="TcWk7vuutBbRPc4ejfDO-116" parent="1" target="TcWk7vuutBbRPc4ejfDO-76">
          <mxGeometry relative="1" as="geometry">
            <mxPoint x="600" y="542.2" as="sourcePoint" />
            <mxPoint x="798.2800000000002" y="720.04" as="targetPoint" />
          </mxGeometry>
        </mxCell>
        <mxCell id="TcWk7vuutBbRPc4ejfDO-115" value="M" style="resizable=0;html=1;align=right;verticalAlign=bottom;" connectable="0" vertex="1" parent="TcWk7vuutBbRPc4ejfDO-114">
          <mxGeometry x="1" relative="1" as="geometry">
            <mxPoint x="-70" y="-122" as="offset" />
          </mxGeometry>
        </mxCell>
        <mxCell id="TcWk7vuutBbRPc4ejfDO-116" value="对应" style="shape=rhombus;double=1;perimeter=rhombusPerimeter;whiteSpace=wrap;html=1;align=center;" vertex="1" parent="1">
          <mxGeometry x="650" y="392.2" width="120" height="60" as="geometry" />
        </mxCell>
        <mxCell id="TcWk7vuutBbRPc4ejfDO-117" value="" style="endArrow=none;html=1;rounded=0;exitX=0;exitY=0.5;exitDx=0;exitDy=0;entryX=0;entryY=1;entryDx=0;entryDy=0;" edge="1" source="TcWk7vuutBbRPc4ejfDO-116" parent="1" target="TcWk7vuutBbRPc4ejfDO-42">
          <mxGeometry relative="1" as="geometry">
            <mxPoint x="600" y="542.2" as="sourcePoint" />
            <mxPoint x="780.6000000000001" y="220.00000000000006" as="targetPoint" />
          </mxGeometry>
        </mxCell>
        <mxCell id="TcWk7vuutBbRPc4ejfDO-118" value="1" style="resizable=0;html=1;align=right;verticalAlign=bottom;" connectable="0" vertex="1" parent="TcWk7vuutBbRPc4ejfDO-117">
          <mxGeometry x="1" relative="1" as="geometry">
            <mxPoint x="-100" y="70" as="offset" />
          </mxGeometry>
        </mxCell>
        <mxCell id="TcWk7vuutBbRPc4ejfDO-119" value="管理" style="shape=rhombus;double=1;perimeter=rhombusPerimeter;whiteSpace=wrap;html=1;align=center;" vertex="1" parent="1">
          <mxGeometry x="1120" y="470" width="120" height="60" as="geometry" />
        </mxCell>
        <mxCell id="TcWk7vuutBbRPc4ejfDO-120" value="" style="endArrow=none;html=1;rounded=0;entryX=0;entryY=0.5;entryDx=0;entryDy=0;exitX=1;exitY=0.5;exitDx=0;exitDy=0;" edge="1" parent="1" source="TcWk7vuutBbRPc4ejfDO-119" target="TcWk7vuutBbRPc4ejfDO-22">
          <mxGeometry relative="1" as="geometry">
            <mxPoint x="920" y="570" as="sourcePoint" />
            <mxPoint x="1080" y="570" as="targetPoint" />
          </mxGeometry>
        </mxCell>
        <mxCell id="TcWk7vuutBbRPc4ejfDO-121" value="N" style="resizable=0;html=1;align=right;verticalAlign=bottom;" connectable="0" vertex="1" parent="TcWk7vuutBbRPc4ejfDO-120">
          <mxGeometry x="1" relative="1" as="geometry">
            <mxPoint x="-30" y="30" as="offset" />
          </mxGeometry>
        </mxCell>
        <mxCell id="TcWk7vuutBbRPc4ejfDO-122" value="" style="endArrow=none;html=1;rounded=0;exitX=1;exitY=0;exitDx=0;exitDy=0;entryX=0.433;entryY=1;entryDx=0;entryDy=0;entryPerimeter=0;" edge="1" parent="1" source="TcWk7vuutBbRPc4ejfDO-76" target="TcWk7vuutBbRPc4ejfDO-119">
          <mxGeometry relative="1" as="geometry">
            <mxPoint x="974" y="730" as="sourcePoint" />
            <mxPoint x="1140" y="498.02" as="targetPoint" />
          </mxGeometry>
        </mxCell>
        <mxCell id="TcWk7vuutBbRPc4ejfDO-123" value="M" style="resizable=0;html=1;align=right;verticalAlign=bottom;" connectable="0" vertex="1" parent="TcWk7vuutBbRPc4ejfDO-122">
          <mxGeometry x="1" relative="1" as="geometry">
            <mxPoint x="-142" y="120" as="offset" />
          </mxGeometry>
        </mxCell>
        <mxCell id="TcWk7vuutBbRPc4ejfDO-124" value="管理" style="shape=rhombus;double=1;perimeter=rhombusPerimeter;whiteSpace=wrap;html=1;align=center;" vertex="1" parent="1">
          <mxGeometry x="1090" y="200" width="120" height="60" as="geometry" />
        </mxCell>
        <mxCell id="TcWk7vuutBbRPc4ejfDO-125" value="" style="endArrow=none;html=1;rounded=0;entryX=0.075;entryY=-0.033;entryDx=0;entryDy=0;exitX=1;exitY=0.5;exitDx=0;exitDy=0;entryPerimeter=0;" edge="1" source="TcWk7vuutBbRPc4ejfDO-124" parent="1" target="TcWk7vuutBbRPc4ejfDO-22">
          <mxGeometry relative="1" as="geometry">
            <mxPoint x="940" y="310" as="sourcePoint" />
            <mxPoint x="1310" y="170" as="targetPoint" />
          </mxGeometry>
        </mxCell>
        <mxCell id="TcWk7vuutBbRPc4ejfDO-126" value="N" style="resizable=0;html=1;align=right;verticalAlign=bottom;" connectable="0" vertex="1" parent="TcWk7vuutBbRPc4ejfDO-125">
          <mxGeometry x="1" relative="1" as="geometry">
            <mxPoint x="-79" y="-58" as="offset" />
          </mxGeometry>
        </mxCell>
        <mxCell id="TcWk7vuutBbRPc4ejfDO-127" value="" style="endArrow=none;html=1;rounded=0;exitX=1;exitY=0.25;exitDx=0;exitDy=0;entryX=0;entryY=0.5;entryDx=0;entryDy=0;" edge="1" target="TcWk7vuutBbRPc4ejfDO-124" parent="1" source="TcWk7vuutBbRPc4ejfDO-42">
          <mxGeometry relative="1" as="geometry">
            <mxPoint x="980" y="470" as="sourcePoint" />
            <mxPoint x="1160" y="238.01999999999998" as="targetPoint" />
          </mxGeometry>
        </mxCell>
        <mxCell id="TcWk7vuutBbRPc4ejfDO-128" value="M" style="resizable=0;html=1;align=right;verticalAlign=bottom;" connectable="0" vertex="1" parent="TcWk7vuutBbRPc4ejfDO-127">
          <mxGeometry x="1" relative="1" as="geometry">
            <mxPoint x="-40" y="30" as="offset" />
          </mxGeometry>
        </mxCell>
        <mxCell id="TcWk7vuutBbRPc4ejfDO-129" value="上传" style="shape=rhombus;double=1;perimeter=rhombusPerimeter;whiteSpace=wrap;html=1;align=center;" vertex="1" parent="1">
          <mxGeometry x="1060" y="680" width="120" height="60" as="geometry" />
        </mxCell>
        <mxCell id="TcWk7vuutBbRPc4ejfDO-130" value="" style="endArrow=none;html=1;rounded=0;entryX=0;entryY=1;entryDx=0;entryDy=0;exitX=1;exitY=0.5;exitDx=0;exitDy=0;" edge="1" source="TcWk7vuutBbRPc4ejfDO-129" parent="1" target="TcWk7vuutBbRPc4ejfDO-22">
          <mxGeometry relative="1" as="geometry">
            <mxPoint x="830" y="760" as="sourcePoint" />
            <mxPoint x="1200" y="620" as="targetPoint" />
          </mxGeometry>
        </mxCell>
        <mxCell id="TcWk7vuutBbRPc4ejfDO-131" value="N" style="resizable=0;html=1;align=right;verticalAlign=bottom;" connectable="0" vertex="1" parent="TcWk7vuutBbRPc4ejfDO-130">
          <mxGeometry x="1" relative="1" as="geometry">
            <mxPoint x="-40" y="70" as="offset" />
          </mxGeometry>
        </mxCell>
        <mxCell id="TcWk7vuutBbRPc4ejfDO-132" value="" style="endArrow=none;html=1;rounded=0;exitX=1;exitY=0.25;exitDx=0;exitDy=0;entryX=0;entryY=0.5;entryDx=0;entryDy=0;" edge="1" target="TcWk7vuutBbRPc4ejfDO-129" parent="1" source="TcWk7vuutBbRPc4ejfDO-76">
          <mxGeometry relative="1" as="geometry">
            <mxPoint x="870" y="920" as="sourcePoint" />
            <mxPoint x="1050" y="688.02" as="targetPoint" />
          </mxGeometry>
        </mxCell>
        <mxCell id="TcWk7vuutBbRPc4ejfDO-136" value="M" style="resizable=0;html=1;align=right;verticalAlign=bottom;" connectable="0" vertex="1" parent="1">
          <mxGeometry x="1030" y="710" as="geometry">
            <mxPoint x="4" y="26" as="offset" />
          </mxGeometry>
        </mxCell>
      </root>
    </mxGraphModel>
  </diagram>
</mxfile>
